<svg width="200" height="43" viewBox="0 0 372 80" fill="none" xmlns="http://www.w3.org/2000/svg">
<path d="M45.592 20.804C48.4347 22.4987 49.856 24.3027 49.856 26.216C49.856 27.3093 49.3093 28.8127 48.216 30.726L31.242 59.836C30.6953 60.7653 29.8207 61.6127 28.618 62.378C27.4153 63.0887 26.2127 63.444 25.01 63.444C23.862 63.444 22.7413 63.1707 21.648 62.624C20.6093 62.0227 19.8713 61.4213 19.434 60.82L18.696 59.918L1.64 30.726C0.546667 28.922 0 27.446 0 26.298C0 24.33 1.42133 22.4987 4.264 20.804C6.34133 19.6013 7.98133 19 9.184 19C10.3867 19 11.316 19.3827 11.972 20.148C12.6827 20.8587 13.4207 21.952 14.186 23.428L24.928 44.092L35.67 23.428C36.2713 22.3893 36.7087 21.6513 36.982 21.214C37.31 20.722 37.802 20.2573 38.458 19.82C39.114 19.328 39.9887 19.082 41.082 19.082C42.1753 19.082 43.6787 19.656 45.592 20.804Z" fill="black"/>
<path d="M54.341 27.036C54.341 25.7787 54.3683 24.8493 54.423 24.248C54.5323 23.592 54.7783 22.854 55.161 22.034C55.9263 20.6127 58.0583 19.902 61.557 19.902C64.181 19.902 66.0397 20.3667 67.133 21.296C68.0623 22.0613 68.5544 23.2367 68.609 24.822C68.6637 25.3687 68.691 26.1613 68.691 27.2V55.9C68.691 57.1573 68.6363 58.114 68.527 58.77C68.4724 59.3713 68.2263 60.082 67.789 60.902C67.0784 62.3233 64.9737 63.034 61.475 63.034C58.031 63.034 55.9263 62.296 55.161 60.82C54.7783 60 54.5323 59.2893 54.423 58.688C54.3683 58.0867 54.341 57.13 54.341 55.818V27.036Z" fill="black"/>
<path d="M89.3454 25.56C91.9147 21.6787 95.0034 19.738 98.6114 19.738C104.187 19.738 108.342 22.116 111.075 26.872C111.677 26.052 112.387 25.2047 113.207 24.33C114.082 23.4007 115.449 22.4167 117.307 21.378C119.166 20.2847 121.079 19.738 123.047 19.738C127.421 19.738 131.083 21.4327 134.035 24.822C136.987 28.1567 138.463 33.7053 138.463 41.468V55.818C138.463 57.0753 138.409 58.032 138.299 58.688C138.245 59.2893 137.999 60 137.561 60.82C136.851 62.296 134.746 63.034 131.247 63.034C127.803 63.034 125.699 62.2687 124.933 60.738C124.551 59.918 124.305 59.2073 124.195 58.606C124.141 57.95 124.113 56.9933 124.113 55.736V41.386C124.113 36.63 122.419 34.252 119.029 34.252C117.116 34.252 115.804 34.8807 115.093 36.138C114.437 37.3953 114.109 39.172 114.109 41.468V55.818C114.109 57.13 114.055 58.0867 113.945 58.688C113.891 59.2893 113.645 60 113.207 60.82C112.442 62.296 110.31 63.034 106.811 63.034C103.367 63.034 101.263 62.2687 100.497 60.738C100.115 59.918 99.8687 59.2073 99.7594 58.606C99.7047 57.95 99.6774 56.9933 99.6774 55.736V41.386C99.6774 36.63 97.9827 34.252 94.5934 34.252C91.3134 34.252 89.6734 36.63 89.6734 41.386V55.9C89.6734 57.1573 89.6187 58.114 89.5094 58.77C89.4547 59.3713 89.2087 60.082 88.7714 60.902C87.9514 62.3233 85.8194 63.034 82.3754 63.034C78.9314 63.034 76.8267 62.296 76.0614 60.82C75.6787 60 75.4327 59.2893 75.3234 58.688C75.2687 58.0867 75.2414 57.13 75.2414 55.818V26.954C75.2414 25.6967 75.2687 24.7673 75.3234 24.166C75.4327 23.51 75.7061 22.7993 76.1434 22.034C76.9634 20.558 78.9041 19.82 81.9654 19.82C85.0267 19.82 87.0221 20.312 87.9514 21.296C88.8807 22.28 89.3454 23.7013 89.3454 25.56Z" fill="black"/>
<path d="M219.3 71.3359C216.999 70.2839 215.158 68.7386 213.777 66.7002C212.462 64.6618 211.147 62.3932 209.832 59.8945C209.634 59.5 209.437 59.1055 209.24 58.7109C209.042 58.3164 208.845 57.9548 208.648 57.626L207.267 55.0615L206.478 53.4834L205.294 54.5684L203.519 56.1465L202.533 57.1328C200.823 58.7109 199.081 60.2891 197.305 61.8672C195.596 63.3796 193.754 64.7604 191.782 66.0098C189.875 67.1934 187.836 68.1797 185.667 68.9688C183.562 69.6921 181.261 70.0866 178.762 70.1523L176.592 69.0674C175.343 68.4098 174.291 67.818 173.436 67.292C172.581 66.7659 171.595 65.944 170.477 64.8262C170.148 64.2344 169.852 63.6755 169.589 63.1494C169.392 62.6234 169.162 62.0973 168.899 61.5713C168.176 60.2562 167.584 59.0726 167.124 58.0205C166.663 56.9684 166.203 55.7848 165.743 54.4697C165.94 53.5492 166.236 52.0039 166.63 49.834C167.025 47.5983 167.485 45.1654 168.011 42.5352C168.603 39.9049 169.195 37.2747 169.787 34.6445C170.444 31.9486 171.102 29.6143 171.759 27.6416C172.351 25.932 173.009 24.1237 173.732 22.2168C174.521 20.3099 175.343 18.5674 176.198 16.9893C177.118 15.3454 178.105 13.9645 179.157 12.8467C180.209 11.6631 181.327 10.9727 182.51 10.7754C182.839 11.2357 183.201 11.5645 183.595 11.7617C183.99 11.959 184.351 12.1234 184.68 12.2549C185.601 13.57 186.488 14.6878 187.343 15.6084C188.264 16.529 189.316 17.4495 190.5 18.3701C190.171 20.014 189.678 21.8551 189.02 23.8936C188.428 25.8662 187.771 27.8717 187.047 29.9102C186.39 31.8828 185.732 33.8226 185.075 35.7295C184.417 37.6364 183.891 39.2803 183.497 40.6611C183.102 41.779 182.773 43.0283 182.51 44.4092C181.918 46.8421 181.36 50.1628 180.833 54.3711C181.623 54.1738 182.477 53.7464 183.398 53.0889C184.319 52.4313 185.206 51.7409 186.061 51.0176C187.047 50.2285 188.034 49.3408 189.02 48.3545C190.269 47.1051 191.321 45.9544 192.176 44.9023C193.031 43.8503 193.82 42.7653 194.543 41.6475C195.333 40.5296 196.122 39.3132 196.911 37.998C197.7 36.6172 198.653 35.0062 199.771 33.165C200.757 31.5869 201.777 29.9102 202.829 28.1348C203.946 26.2936 205.031 24.5511 206.083 22.9072C207.201 21.1976 208.286 19.6523 209.338 18.2715C210.39 16.8906 211.344 15.8057 212.199 15.0166C212.725 15.6742 213.382 16.2988 214.171 16.8906C215.026 17.4824 215.914 17.9427 216.834 18.2715C217.229 18.8633 217.591 19.4222 217.919 19.9482C218.314 20.4085 218.676 20.8359 219.004 21.2305C219.399 21.8223 219.761 22.3812 220.089 22.9072C220.484 23.4333 220.846 23.9593 221.174 24.4854C221.109 24.9456 221.01 25.5374 220.878 26.2607C220.747 26.984 220.583 27.7731 220.385 28.6279C220.254 29.4827 220.089 30.3704 219.892 31.291C219.695 32.1458 219.498 32.9678 219.3 33.7568C218.774 36.2555 218.38 38.1296 218.117 39.3789C217.854 40.6283 217.656 41.6146 217.525 42.3379C217.459 43.0612 217.393 43.6859 217.328 44.2119C217.328 44.6722 217.328 45.3298 217.328 46.1846C217.262 46.8421 217.295 47.4997 217.426 48.1572C217.492 48.749 217.624 49.3737 217.821 50.0312C218.018 50.6888 218.281 51.2806 218.61 51.8066L222.555 48.749C223.673 47.8942 224.725 46.7435 225.711 45.2969C226.764 43.7845 227.75 42.0749 228.67 40.168C229.657 38.1953 230.61 36.0583 231.531 33.7568C232.451 31.4554 233.372 29.1211 234.292 26.7539C235.673 23.2689 237.054 19.8825 238.435 16.5947C239.882 13.307 241.263 10.7754 242.578 9C244.024 9.92057 245.274 10.874 246.326 11.8604C247.444 12.7809 248.397 13.8001 249.186 14.918C249.975 16.0358 250.6 17.318 251.06 18.7646C251.586 20.2113 251.948 21.9209 252.145 23.8936C250.961 26.195 249.811 28.5622 248.693 30.9951C247.641 33.4281 246.622 35.861 245.635 38.2939C244.32 41.4502 242.939 44.6064 241.493 47.7627C240.112 50.9189 238.567 53.9437 236.857 56.8369C235.147 59.6644 233.24 62.2946 231.136 64.7275C229.032 67.0947 226.599 69.1003 223.837 70.7441C223.114 70.5469 222.489 70.4482 221.963 70.4482C220.911 70.4482 220.024 70.7441 219.3 71.3359Z" fill="#E5E5E5"/>
<path d="M268.025 63.1494C268.354 65.1221 268.222 66.6673 267.63 67.7852C267.104 68.903 266.315 69.7249 265.263 70.251C264.277 70.8428 263.126 71.1716 261.811 71.2373C260.496 71.3031 259.247 71.2373 258.063 71.04C257.405 70.1195 256.814 68.9688 256.288 67.5879C255.762 66.207 255.268 64.7933 254.808 63.3467C254.348 61.8343 253.92 60.3548 253.526 58.9082C253.197 57.4616 252.901 56.1794 252.638 55.0615C252.967 54.2725 253.164 53.3848 253.23 52.3984C253.361 51.3464 253.427 50.2943 253.427 49.2422C253.493 48.1901 253.526 47.138 253.526 46.0859C253.592 44.9681 253.69 43.916 253.822 42.9297C254.282 40.168 254.94 37.5378 255.794 35.0391C256.715 32.5404 257.438 29.943 257.964 27.2471C258.096 26.6553 258.03 26.0964 257.767 25.5703C257.57 25.0443 257.537 24.5511 257.668 24.0908C257.734 23.8278 257.931 23.6634 258.26 23.5977C258.589 23.4661 258.786 23.236 258.852 22.9072C259.049 22.1839 259.082 21.5921 258.951 21.1318C258.885 20.6715 259.016 20.1126 259.345 19.4551C259.674 18.929 260.069 18.1729 260.529 17.1865C261.055 16.1344 261.252 15.0495 261.121 13.9316C261.712 13.5371 262.271 13.0768 262.797 12.5508C263.323 12.0247 263.849 11.5645 264.375 11.1699C264.967 10.7096 265.592 10.3151 266.25 9.98633C266.973 9.65755 267.828 9.49316 268.814 9.49316C269.34 10.1507 269.669 10.874 269.8 11.6631C269.998 12.4521 270.162 13.2412 270.293 14.0303C270.491 14.8193 270.754 15.5755 271.083 16.2988C271.411 16.9564 271.97 17.4824 272.759 17.877C272.759 18.403 272.759 19.0605 272.759 19.8496C272.759 20.6387 272.792 21.4277 272.858 22.2168C272.924 22.9401 273.055 23.6305 273.252 24.2881C273.515 24.8799 273.91 25.2744 274.436 25.4717C273.252 28.6279 272.135 31.7513 271.083 34.8418C270.096 37.9323 269.274 41.0557 268.617 44.2119C267.959 47.3024 267.532 50.4258 267.334 53.582C267.203 56.7383 267.433 59.9274 268.025 63.1494Z" fill="#E5E5E5"/>
<path d="M338.942 66.5029C335.786 66.6344 332.991 66.5687 330.558 66.3057C328.191 66.0426 325.857 65.418 323.555 64.4316C323.424 64.3659 323.292 64.2015 323.161 63.9385C323.029 63.6755 322.898 63.4782 322.766 63.3467C322.372 63.1494 321.878 63.0837 321.287 63.1494C320.761 63.1494 320.3 63.0837 319.906 62.9521C319.38 62.6891 318.558 62.196 317.44 61.4727C316.322 60.6836 315.303 59.9603 314.382 59.3027C313.199 58.3822 312.081 57.4616 311.029 56.541C309.977 55.6204 309.056 54.6341 308.267 53.582C308.07 53.319 307.807 53.1875 307.478 53.1875C307.149 53.1217 306.853 53.0231 306.59 52.8916C304.683 54.0752 303.072 55.5547 301.757 57.3301C300.442 59.1055 299.193 60.9137 298.009 62.7549C296.826 64.596 295.576 66.3385 294.261 67.9824C292.946 69.6263 291.269 70.8757 289.231 71.7305C288.639 71.7305 288.113 71.6318 287.653 71.4346C287.193 71.2373 286.765 70.9743 286.371 70.6455C285.976 70.3825 285.582 70.1195 285.187 69.8564C284.792 69.5934 284.365 69.3962 283.905 69.2646C283.905 68.4756 283.74 67.7523 283.412 67.0947C283.149 66.4372 282.853 65.8125 282.524 65.2207C282.261 64.6289 282.064 64.07 281.932 63.5439C281.801 62.9521 281.932 62.3932 282.327 61.8672C281.932 61.4727 281.34 61.0452 280.551 60.585C280.946 60.1904 281.11 59.8288 281.044 59.5C281.044 59.1712 280.979 58.8424 280.847 58.5137C280.716 58.1849 280.584 57.8232 280.453 57.4287C280.387 57.0342 280.486 56.6396 280.749 56.2451C281.077 56.2451 281.472 56.1794 281.932 56.0479C281.538 55.5218 281.34 55.2259 281.34 55.1602C281.406 55.0286 281.34 54.8643 281.143 54.667C281.012 54.2725 281.077 54.0423 281.34 53.9766C281.603 53.8451 281.866 53.7135 282.129 53.582C282.392 50.36 282.951 47.3682 283.806 44.6064C284.661 41.8447 285.614 39.1816 286.667 36.6172C287.719 34.0527 288.738 31.4554 289.724 28.8252C290.776 26.195 291.631 23.3675 292.289 20.3428C293.012 19.6195 293.571 18.7646 293.965 17.7783C294.426 16.792 294.886 15.8057 295.346 14.8193C295.872 13.833 296.431 12.8796 297.023 11.959C297.68 10.9727 298.568 10.1836 299.686 9.5918C300.607 9.65755 301.429 9.92057 302.152 10.3809C302.875 10.7754 303.763 10.9398 304.815 10.874C305.012 11.2028 305.177 11.5316 305.308 11.8604C305.505 12.1891 305.736 12.5179 305.999 12.8467L307.478 12.5508C308.201 13.1426 308.826 13.8988 309.352 14.8193C309.944 15.6742 310.338 16.5947 310.536 17.5811C310.733 18.5674 310.7 19.5208 310.437 20.4414C310.174 21.2962 309.549 21.9867 308.563 22.5127C308.629 22.8415 308.629 23.1045 308.563 23.3018C308.563 23.4333 308.53 23.5648 308.464 23.6963C308.399 23.8278 308.366 23.9593 308.366 24.0908C308.366 24.2223 308.464 24.4196 308.662 24.6826C307.347 25.6689 306.36 27.0498 305.703 28.8252C305.045 30.6006 304.683 32.1787 304.618 33.5596C305.407 32.7705 306.262 32.0143 307.182 31.291C308.168 30.502 309.155 29.7458 310.141 29.0225C311.193 28.2992 312.18 27.6087 313.1 26.9512C314.086 26.2936 314.974 25.6361 315.763 24.9785C317.933 23.0059 320.004 21.4277 321.977 20.2441C324.015 18.9948 326.153 17.6139 328.388 16.1016C328.914 15.9701 329.309 15.9701 329.572 16.1016C329.901 16.1673 330.229 16.266 330.558 16.3975C330.558 16.0029 330.427 15.7728 330.164 15.707C329.966 15.6413 329.901 15.3783 329.966 14.918C330.953 14.6549 331.807 14.359 332.531 14.0303C333.254 13.6357 334.043 13.2741 334.898 12.9453C335.49 13.5371 336.049 14.1618 336.575 14.8193C337.101 15.4111 337.824 15.7728 338.745 15.9043C339.073 16.6276 339.468 17.1865 339.928 17.5811C340.389 17.9098 340.849 18.2386 341.309 18.5674C341.769 18.8962 342.164 19.2907 342.493 19.751C342.887 20.2113 343.117 20.9346 343.183 21.9209C342.92 22.3812 342.624 22.8743 342.295 23.4004C342.032 23.9264 341.769 24.5511 341.506 25.2744C340.191 26.458 338.843 27.5101 337.462 28.4307C336.147 29.3512 334.799 30.2389 333.418 31.0938C332.038 31.9486 330.624 32.8034 329.177 33.6582C327.731 34.513 326.251 35.5322 324.739 36.7158C324.41 37.1761 323.983 37.6035 323.457 37.998C322.996 38.3268 322.503 38.6885 321.977 39.083C321.451 39.4118 320.958 39.7734 320.498 40.168C320.037 40.5625 319.676 41.0228 319.413 41.5488C319.215 41.6146 319.018 41.6475 318.821 41.6475C318.624 41.6475 318.426 41.6803 318.229 41.7461C318.032 42.2064 317.703 42.568 317.243 42.8311C316.848 43.0941 316.585 43.4557 316.454 43.916C317.44 46.0202 318.722 47.6312 320.3 48.749C321.878 49.8669 323.654 50.6888 325.626 51.2148C327.599 51.6751 329.736 51.9382 332.038 52.0039C334.339 52.0039 336.739 52.0039 339.238 52.0039C339.501 51.9382 339.599 51.8066 339.534 51.6094C339.534 51.3464 339.698 51.2477 340.027 51.3135C341.605 51.8395 342.821 52.5957 343.676 53.582C344.531 54.5026 345.55 55.4232 346.734 56.3438C346.602 58.8424 345.846 60.9137 344.465 62.5576C343.084 64.2015 341.243 65.5166 338.942 66.5029Z" fill="#E5E5E5"/>
<path d="M365.573 63.1494C365.902 65.1221 365.77 66.6673 365.178 67.7852C364.652 68.903 363.863 69.7249 362.811 70.251C361.825 70.8428 360.674 71.1716 359.359 71.2373C358.044 71.3031 356.794 71.2373 355.611 71.04C354.953 70.1195 354.361 68.9688 353.835 67.5879C353.309 66.207 352.816 64.7933 352.356 63.3467C351.896 61.8343 351.468 60.3548 351.074 58.9082C350.745 57.4616 350.449 56.1794 350.186 55.0615C350.515 54.2725 350.712 53.3848 350.778 52.3984C350.909 51.3464 350.975 50.2943 350.975 49.2422C351.041 48.1901 351.074 47.138 351.074 46.0859C351.139 44.9681 351.238 43.916 351.37 42.9297C351.83 40.168 352.487 37.5378 353.342 35.0391C354.263 32.5404 354.986 29.943 355.512 27.2471C355.644 26.6553 355.578 26.0964 355.315 25.5703C355.118 25.0443 355.085 24.5511 355.216 24.0908C355.282 23.8278 355.479 23.6634 355.808 23.5977C356.137 23.4661 356.334 23.236 356.4 22.9072C356.597 22.1839 356.63 21.5921 356.499 21.1318C356.433 20.6715 356.564 20.1126 356.893 19.4551C357.222 18.929 357.616 18.1729 358.077 17.1865C358.603 16.1344 358.8 15.0495 358.668 13.9316C359.26 13.5371 359.819 13.0768 360.345 12.5508C360.871 12.0247 361.397 11.5645 361.923 11.1699C362.515 10.7096 363.14 10.3151 363.797 9.98633C364.521 9.65755 365.375 9.49316 366.362 9.49316C366.888 10.1507 367.217 10.874 367.348 11.6631C367.545 12.4521 367.71 13.2412 367.841 14.0303C368.039 14.8193 368.302 15.5755 368.63 16.2988C368.959 16.9564 369.518 17.4824 370.307 17.877C370.307 18.403 370.307 19.0605 370.307 19.8496C370.307 20.6387 370.34 21.4277 370.406 22.2168C370.472 22.9401 370.603 23.6305 370.8 24.2881C371.063 24.8799 371.458 25.2744 371.984 25.4717C370.8 28.6279 369.682 31.7513 368.63 34.8418C367.644 37.9323 366.822 41.0557 366.165 44.2119C365.507 47.3024 365.08 50.4258 364.882 53.582C364.751 56.7383 364.981 59.9274 365.573 63.1494Z" fill="#E5E5E5"/>
<rect x="144.77" width="15" height="80" rx="4" fill="#00FFA3"/>
</svg>
