<?xml version="1.0" encoding="UTF-8" standalone="no"?>
<svg
   xmlns:dc="http://purl.org/dc/elements/1.1/"
   xmlns:cc="http://creativecommons.org/ns#"
   xmlns:rdf="http://www.w3.org/1999/02/22-rdf-syntax-ns#"
   xmlns:svg="http://www.w3.org/2000/svg"
   xmlns="http://www.w3.org/2000/svg"
   xmlns:sodipodi="http://sodipodi.sourceforge.net/DTD/sodipodi-0.dtd"
   xmlns:inkscape="http://www.inkscape.org/namespaces/inkscape"
   width="100"
   height="100"
   viewBox="0 0 186 186.0465"
   fill="none"
   version="1.1"
   id="svg86"
   sodipodi:docname="vertical-logo.svg"
   inkscape:version="1.0.2 (e86c870879, 2021-01-15)">
  <metadata
     id="metadata92">
    <rdf:RDF>
      <cc:Work
         rdf:about="">
        <dc:format>image/svg+xml</dc:format>
        <dc:type
           rdf:resource="http://purl.org/dc/dcmitype/StillImage" />
        <dc:title></dc:title>
      </cc:Work>
    </rdf:RDF>
  </metadata>
  <defs
     id="defs90" />
  <sodipodi:namedview
     pagecolor="#ffffff"
     bordercolor="#666666"
     borderopacity="1"
     objecttolerance="10"
     gridtolerance="10"
     guidetolerance="10"
     inkscape:pageopacity="0"
     inkscape:pageshadow="2"
     inkscape:window-width="1256"
     inkscape:window-height="1000"
     id="namedview88"
     showgrid="false"
     inkscape:zoom="6.33"
     inkscape:cx="48.744425"
     inkscape:cy="52.804906"
     inkscape:window-x="1616"
     inkscape:window-y="64"
     inkscape:window-maximized="0"
     inkscape:current-layer="svg86"
     units="px" />
  <path
     d="m 57.306337,151.56994 c -1.657094,-0.76144 -2.982911,-1.87997 -3.977454,-3.35539 -0.947014,-1.47545 -1.894026,-3.1175 -2.841039,-4.9261 -0.142593,-0.28556 -0.284465,-0.57111 -0.426336,-0.85672 -0.142592,-0.28555 -0.284465,-0.54728 -0.426335,-0.78527 l -0.994544,-1.85624 -0.568208,-1.14226 -0.852672,0.78534 -1.278288,1.14225 -0.710079,0.71391 c -1.231478,1.14226 -2.486,2.28461 -3.765006,3.42686 -1.230758,1.0947 -2.557296,2.09415 -3.977457,2.99848 -1.373348,0.85672 -2.841757,1.57062 -4.403789,2.14179 -1.515941,0.52354 -3.173033,0.80909 -4.97272,0.85665 l -1.562749,-0.78527 c -0.899483,-0.47599 -1.657093,-0.90434 -2.272833,-1.28507 -0.615736,-0.3808 -1.325816,-0.97571 -2.130958,-1.7848 -0.236933,-0.42835 -0.450102,-0.83288 -0.639503,-1.21369 -0.141872,-0.38073 -0.307511,-0.76153 -0.496912,-1.14227 -0.520678,-0.95188 -0.947013,-1.8086 -1.278287,-2.57013 -0.331995,-0.76154 -0.663269,-1.61825 -0.994543,-2.57015 0.141873,-0.66627 0.35504,-1.78479 0.638784,-3.35542 0.284464,-1.61823 0.615738,-3.37922 0.994543,-5.28301 0.426335,-1.90386 0.852669,-3.80765 1.279006,-5.71144 0.473146,-1.95134 0.947014,-3.64095 1.420159,-5.06883 0.426337,-1.23744 0.900204,-2.54633 1.42088,-3.92658 0.568207,-1.38026 1.160181,-2.64151 1.775918,-3.78376 0.66255,-1.18989 1.37335,-2.18942 2.13096,-2.9985 0.757611,-0.85671 1.562753,-1.35644 2.414704,-1.49924 0.236932,0.33317 0.497632,0.57116 0.781375,0.71391 0.284464,0.1428 0.544442,0.2618 0.781376,0.35697 0.663268,0.95191 1.302053,1.76099 1.917791,2.42733 0.66327,0.66635 1.42088,1.33263 2.273552,1.99898 -0.236934,1.18989 -0.591973,2.52251 -1.065841,3.99801 -0.426336,1.42781 -0.899482,2.87943 -1.42088,4.35493 -0.473145,1.4278 -0.947012,2.83188 -1.420158,4.21213 -0.473867,1.38024 -0.852671,2.57013 -1.136416,3.56959 -0.284464,0.80914 -0.521397,1.71342 -0.710799,2.71293 -0.426335,1.76099 -0.828187,4.16457 -1.207712,7.21063 0.568927,-0.14281 1.183945,-0.45217 1.847215,-0.92808 0.663269,-0.47599 1.302054,-0.97571 1.917791,-1.49925 0.710079,-0.57117 1.42088,-1.2137 2.130959,-1.9276 0.899483,-0.90434 1.657094,-1.73725 2.272831,-2.49879 0.615739,-0.76143 1.183947,-1.54679 1.704625,-2.35588 0.568926,-0.80915 1.137135,-1.68961 1.705343,-2.64157 0.568207,-0.99946 1.254521,-2.16553 2.059663,-3.49823 0.71008,-1.14225 1.444645,-2.35589 2.202256,-3.64096 0.80442,-1.33269 1.585796,-2.59394 2.343406,-3.78383 0.805141,-1.23744 1.586517,-2.35596 2.344128,-3.35541 0.75761,-0.99953 1.444645,-1.7848 2.060383,-2.35596 0.378806,0.47598 0.851952,0.92808 1.420159,1.35643 0.615739,0.42836 1.255241,0.76154 1.917791,0.99953 0.284464,0.42835 0.545162,0.8329 0.781377,1.21362 0.284463,0.33318 0.545161,0.64253 0.781375,0.92816 0.284464,0.42835 0.545163,0.8329 0.781375,1.21363 0.284465,0.3808 0.545164,0.76153 0.781376,1.14233 -0.04681,0.3331 -0.118106,0.76145 -0.213168,1.285 -0.09435,0.52353 -0.212448,1.0947 -0.35504,1.71342 -0.09435,0.61872 -0.213168,1.26126 -0.355039,1.9276 -0.141872,0.61872 -0.283743,1.21371 -0.426336,1.7848 -0.378805,1.8086 -0.662548,3.16512 -0.851951,4.06939 -0.189404,0.90433 -0.331995,1.61824 -0.426337,2.14177 -0.04753,0.52354 -0.09507,0.97572 -0.141871,1.35644 0,0.33317 0,0.80917 0,1.42789 -0.04753,0.47591 -0.02377,0.95189 0.07058,1.4278 0.04753,0.42835 0.142593,0.88052 0.284464,1.35643 0.141873,0.47599 0.331275,0.90434 0.568207,1.28507 l 2.841039,-2.21315 c 0.805143,-0.61871 1.562754,-1.45162 2.272834,-2.4987 0.758329,-1.0947 1.46841,-2.33214 2.130959,-3.71239 0.7108,-1.42787 1.397113,-2.97468 2.060384,-4.64055 0.662548,-1.6658 1.325816,-3.35541 1.988367,-5.06884 0.994543,-2.52251 1.989087,-4.97366 2.98363,-7.35342 1.042075,-2.3797 2.036618,-4.21212 2.983631,-5.4972 1.041355,0.66633 1.941557,1.35644 2.699168,2.07043 0.80514,0.66627 1.491454,1.40398 2.059663,2.21313 0.568207,0.80909 1.018308,1.73717 1.349582,2.78425 0.378807,1.04716 0.639505,2.28459 0.781376,3.71247 -0.852672,1.66581 -1.680857,3.37923 -2.485999,5.1402 -0.75761,1.76106 -1.491454,3.52204 -2.202255,5.28302 -0.947012,2.28459 -1.941557,4.56912 -2.982911,6.8537 -0.994543,2.28452 -2.107193,4.47393 -3.33867,6.56808 -1.231477,2.04661 -2.604827,3.95041 -4.120047,5.71138 -1.515221,1.71343 -3.267375,3.16511 -5.256465,4.35493 -0.520676,-0.14272 -0.970777,-0.21417 -1.349583,-0.21417 -0.75761,0 -1.396394,0.21417 -1.917791,0.64252 z"
     fill="#e5e5e5"
     id="path76"
     style="stroke-width:0.721988" />
  <path
     d="m 92.396232,145.6444 c 0.236928,1.42788 0.141863,2.54633 -0.284466,3.35548 -0.378802,0.80908 -0.947017,1.40399 -1.704611,1.78479 -0.710087,0.42835 -1.538988,0.66635 -2.486004,0.71391 -0.947016,0.0477 -1.846494,0 -2.699175,-0.14281 -0.473857,-0.66628 -0.899478,-1.49919 -1.278291,-2.4987 -0.378791,-0.99953 -0.734555,-2.02279 -1.065829,-3.06986 -0.331275,-1.0947 -0.6395,-2.1656 -0.923258,-3.21269 -0.236934,-1.04707 -0.450096,-1.97515 -0.6395,-2.78431 0.236936,-0.5711 0.378811,-1.21363 0.426332,-1.92761 0.09436,-0.76145 0.141875,-1.52298 0.141875,-2.28452 0.04755,-0.76153 0.07133,-1.52306 0.07133,-2.28458 0.04756,-0.80909 0.118115,-1.57063 0.213181,-2.28453 0.331274,-1.99897 0.805132,-3.90276 1.420154,-5.71137 0.663269,-1.8086 1.183945,-3.68865 1.562747,-5.63999 0.09512,-0.42837 0.04756,-0.8329 -0.141864,-1.2137 -0.141873,-0.38074 -0.165642,-0.73772 -0.07129,-1.0709 0.04755,-0.19037 0.189401,-0.30936 0.426341,-0.35691 0.236917,-0.0953 0.378791,-0.26181 0.426329,-0.49979 0.141874,-0.52354 0.165643,-0.9519 0.07129,-1.28508 -0.04755,-0.33316 0.04681,-0.73771 0.283747,-1.21363 0.236929,-0.3808 0.521395,-0.92808 0.852669,-1.64205 0.378803,-0.76153 0.520677,-1.54681 0.426331,-2.35595 0.42561,-0.28556 0.828191,-0.61873 1.206994,-0.99945 0.378802,-0.3808 0.757615,-0.71391 1.136417,-0.99953 0.42633,-0.33317 0.876429,-0.61872 1.350296,-0.85668 0.520677,-0.23799 1.136418,-0.35698 1.846505,-0.35698 0.378802,0.47595 0.61572,0.99948 0.710066,1.57065 0.142594,0.5711 0.260709,1.14226 0.355044,1.71343 0.142593,0.57108 0.331995,1.11844 0.568934,1.64198 0.236209,0.47598 0.638769,0.85671 1.206983,1.14233 0,0.38073 0,0.85665 0,1.42781 0,0.57116 0.02373,1.14225 0.07129,1.71342 0.04755,0.52354 0.141874,1.02327 0.283748,1.49926 0.1894,0.42835 0.473867,0.71389 0.852673,0.8567 -0.852673,2.28452 -1.657097,4.54531 -2.414702,6.78226 -0.710807,2.23697 -1.302779,4.49774 -1.775926,6.78226 -0.473858,2.23697 -0.781375,4.49774 -0.923968,6.78227 -0.09437,2.28459 0.07129,4.59293 0.497637,6.92508 z"
     fill="#e5e5e5"
     id="path78"
     style="stroke-width:0.721988" />
  <path
     d="m 143.46797,148.07174 c -2.27282,0.0952 -4.28569,0.0477 -6.03785,-0.14276 -1.70461,-0.19042 -3.38546,-0.64252 -5.04328,-1.3565 -0.0944,-0.0477 -0.1894,-0.16655 -0.28375,-0.35691 -0.0951,-0.19036 -0.1894,-0.33318 -0.28446,-0.42836 -0.28374,-0.14281 -0.63949,-0.19038 -1.06513,-0.14281 -0.37881,0 -0.7108,-0.0477 -0.99453,-0.14281 -0.37881,-0.19037 -0.97078,-0.54728 -1.77593,-1.07082 -0.80513,-0.57116 -1.53898,-1.0947 -2.20226,-1.57069 -0.85193,-0.66628 -1.65709,-1.33263 -2.41469,-1.99897 -0.75761,-0.66636 -1.42089,-1.38026 -1.9891,-2.14179 -0.14186,-0.19036 -0.33127,-0.28556 -0.5682,-0.28556 -0.23693,-0.0477 -0.45011,-0.11898 -0.63949,-0.21416 -1.37336,0.8567 -2.53354,1.9276 -3.48055,3.21268 -0.94701,1.28506 -1.8465,2.59388 -2.69917,3.92656 -0.85195,1.33262 -1.75215,2.59389 -2.69916,3.78377 -0.94703,1.18989 -2.15474,2.09425 -3.62243,2.71295 -0.42633,0 -0.80513,-0.0715 -1.13642,-0.21418 -0.33127,-0.14279 -0.6395,-0.33316 -0.92323,-0.57116 -0.28448,-0.19036 -0.56822,-0.38072 -0.85268,-0.57116 -0.28446,-0.19036 -0.59198,-0.33311 -0.92326,-0.42835 0,-0.5711 -0.11882,-1.09464 -0.35503,-1.57062 -0.18941,-0.47591 -0.40258,-0.92808 -0.63951,-1.35644 -0.18939,-0.42835 -0.33127,-0.8329 -0.42632,-1.2137 -0.0944,-0.42835 0,-0.83289 0.28445,-1.21362 -0.28445,-0.28555 -0.7108,-0.59499 -1.27901,-0.92808 0.28446,-0.28562 0.40258,-0.54736 0.35505,-0.78536 0,-0.238 -0.0468,-0.47599 -0.14187,-0.7139 -0.0944,-0.23798 -0.18941,-0.49979 -0.28376,-0.78534 -0.0476,-0.28556 0.0239,-0.57116 0.21317,-0.85672 0.23622,0 0.52068,-0.0476 0.85197,-0.14273 -0.28375,-0.3808 -0.42635,-0.59498 -0.42635,-0.64255 0.0476,-0.0953 0,-0.21417 -0.14186,-0.35698 -0.0944,-0.28555 -0.0476,-0.45218 0.14186,-0.49972 0.18941,-0.0952 0.37881,-0.19044 0.56821,-0.28562 0.18941,-2.33215 0.59197,-4.49767 1.20772,-6.49671 0.61573,-1.99898 1.30205,-3.92659 2.06037,-5.78275 0.75763,-1.85623 1.49146,-3.73621 2.20153,-5.64 0.75761,-1.90378 1.37336,-3.95039 1.84722,-6.13972 0.52069,-0.52355 0.92326,-1.14234 1.207,-1.85624 0.33199,-0.7139 0.66327,-1.42781 0.99455,-2.14179 0.3788,-0.71389 0.78137,-1.40398 1.20771,-2.07033 0.47314,-0.71391 1.11265,-1.28507 1.91778,-1.71343 0.66327,0.0476 1.25525,0.23797 1.77593,0.57117 0.52068,0.28555 1.16017,0.40454 1.91778,0.35691 0.14188,0.23799 0.2607,0.47599 0.35504,0.71399 0.14188,0.23792 0.30824,0.4759 0.49765,0.71389 l 1.06511,-0.21417 c 0.52068,0.42836 0.9708,0.9757 1.34959,1.64197 0.42633,0.6188 0.71007,1.28508 0.85267,1.99905 0.14186,0.7139 0.11811,1.40399 -0.0713,2.07034 -0.1894,0.61873 -0.6395,1.11852 -1.34959,1.49925 0.0476,0.23799 0.0476,0.42835 0,0.57116 0,0.0952 -0.0238,0.19037 -0.0713,0.28555 -0.0468,0.0952 -0.0705,0.19037 -0.0705,0.28555 0,0.0952 0.0705,0.23799 0.21316,0.42836 -0.94699,0.71391 -1.6578,1.71343 -2.13094,2.99849 -0.47387,1.28507 -0.73458,2.42733 -0.78139,3.42685 0.5682,-0.57116 1.18395,-1.11851 1.8465,-1.64206 0.71009,-0.57109 1.42088,-1.11844 2.13096,-1.64198 0.75761,-0.52354 1.46842,-1.02334 2.13096,-1.49924 0.71008,-0.47599 1.34959,-0.9519 1.91779,-1.42788 1.56274,-1.42781 3.05421,-2.57015 4.47509,-3.42685 1.46769,-0.90428 3.00739,-1.9038 4.61694,-2.99843 0.37882,-0.0952 0.66328,-0.0952 0.85268,0 0.23693,0.0476 0.47316,0.119 0.71009,0.21418 0,-0.28562 -0.0944,-0.45217 -0.28375,-0.4998 -0.1426,-0.0476 -0.18941,-0.23791 -0.1426,-0.5711 0.71082,-0.19043 1.32583,-0.4046 1.84722,-0.64252 0.52068,-0.28562 1.08889,-0.54736 1.70463,-0.78535 0.42633,0.42835 0.8289,0.88053 1.20772,1.35643 0.37879,0.42837 0.89947,0.69017 1.56274,0.78535 0.23621,0.52354 0.52068,0.92808 0.85195,1.2137 0.33201,0.23792 0.66327,0.47591 0.99454,0.7139 0.33128,0.238 0.61574,0.52354 0.85267,0.85672 0.28375,0.33318 0.44939,0.85671 0.49692,1.57061 -0.18941,0.33318 -0.40257,0.69009 -0.63951,1.07089 -0.18939,0.38074 -0.37881,0.83291 -0.56821,1.35644 -0.947,0.85672 -1.91778,1.61825 -2.91231,2.2846 -0.94704,0.66627 -1.91781,1.3088 -2.91235,1.9276 -0.99382,0.61872 -2.01214,1.23744 -3.05421,1.85616 -1.04136,0.61872 -2.10718,1.35644 -3.19608,2.21316 -0.23694,0.33316 -0.54444,0.64252 -0.92324,0.92808 -0.332,0.23798 -0.68703,0.49978 -1.06584,0.78533 -0.3788,0.238 -0.73384,0.49973 -1.06513,0.78535 -0.33199,0.28554 -0.59196,0.61872 -0.78139,0.99945 -0.14258,0.0477 -0.28446,0.0714 -0.42633,0.0714 -0.14187,0 -0.28446,0.0238 -0.42632,0.0714 -0.14188,0.33317 -0.37881,0.59492 -0.71008,0.78535 -0.28446,0.19037 -0.47387,0.4521 -0.5682,0.78526 0.71006,1.52307 1.63331,2.68915 2.76973,3.49824 1.13642,0.80915 2.41543,1.40405 3.83558,1.78477 1.42087,0.33318 2.95986,0.52362 4.61768,0.57118 1.6571,0 3.38547,0 5.18517,0 0.1894,-0.0477 0.25998,-0.14281 0.21317,-0.28555 0,-0.19036 0.1181,-0.2618 0.35503,-0.21418 1.13641,0.38073 2.01214,0.92808 2.62786,1.64199 0.61575,0.66635 1.34959,1.3327 2.20227,1.99904 -0.095,1.80854 -0.63951,3.30779 -1.63406,4.49769 -0.99453,1.18988 -2.32035,2.14177 -3.97745,2.85568 z"
     fill="#e5e5e5"
     id="path80"
     style="stroke-width:0.721988" />
  <path
     d="m 162.64661,145.6444 c 0.23693,1.42788 0.14187,2.54633 -0.28446,3.35548 -0.37882,0.80908 -0.94703,1.40399 -1.70463,1.78479 -0.7101,0.42835 -1.539,0.66635 -2.486,0.71391 -0.94702,0.0477 -1.84721,0 -2.69917,-0.14281 -0.47387,-0.66628 -0.9002,-1.49919 -1.279,-2.4987 -0.37881,-0.99953 -0.73384,-2.02279 -1.06514,-3.06986 -0.33127,-1.0947 -0.63948,-2.1656 -0.92323,-3.21269 -0.23696,-1.04707 -0.45011,-1.97515 -0.63951,-2.78431 0.23694,-0.5711 0.3788,-1.21363 0.42633,-1.92761 0.0944,-0.76145 0.14187,-1.52298 0.14187,-2.28452 0.0476,-0.76153 0.0712,-1.52306 0.0712,-2.28458 0.0468,-0.80909 0.11812,-1.57063 0.21317,-2.28453 0.33126,-1.99897 0.80441,-3.90276 1.42017,-5.71137 0.66327,-1.8086 1.18395,-3.68865 1.56275,-5.63999 0.0951,-0.42837 0.0476,-0.8329 -0.14188,-1.2137 -0.14187,-0.38074 -0.16565,-0.73772 -0.0713,-1.0709 0.0476,-0.19037 0.18939,-0.30936 0.42634,-0.35691 0.23693,-0.0953 0.3788,-0.26181 0.42633,-0.49979 0.14188,-0.52354 0.16563,-0.9519 0.0712,-1.28508 -0.0476,-0.33316 0.0468,-0.73771 0.28375,-1.21363 0.23695,-0.3808 0.52066,-0.92808 0.85266,-1.64205 0.37881,-0.76153 0.52068,-1.54681 0.42562,-2.35595 0.42635,-0.28556 0.82891,-0.61873 1.20772,-0.99945 0.3788,-0.3808 0.75759,-0.71391 1.13641,-0.99953 0.42634,-0.33317 0.87644,-0.61872 1.34959,-0.85668 0.52139,-0.23799 1.13641,-0.35698 1.8472,-0.35698 0.37881,0.47595 0.61575,0.99948 0.7101,1.57065 0.14187,0.5711 0.26068,1.14226 0.35503,1.71343 0.14259,0.57108 0.332,1.11844 0.56821,1.64198 0.23694,0.47598 0.63949,0.85671 1.2077,1.14233 0,0.38073 0,0.85665 0,1.42781 0,0.57116 0.0238,1.14225 0.0713,1.71342 0.0476,0.52354 0.14186,1.02327 0.28374,1.49926 0.18941,0.42835 0.47386,0.71389 0.85266,0.8567 -0.85266,2.28452 -1.6578,4.54531 -2.41542,6.78226 -0.71008,2.23697 -1.30205,4.49774 -1.77521,6.78226 -0.47386,2.23697 -0.78137,4.49774 -0.92395,6.78227 -0.0944,2.28459 0.0712,4.59293 0.49763,6.92508 z"
     fill="#e5e5e5"
     id="path82"
     style="stroke-width:0.721988" />
  <rect
     x="84.206207"
     width="14.097202"
     height="167.75996"
     rx="1.5241456"
     fill="#00ffa3"
     id="rect84"
     y="-176.87997"
     style="stroke-width:1.0187"
     transform="rotate(90)" />
  <path
     d="m 70.621435,35.89871 c 2.69107,1.604304 4.036557,3.312078 4.036557,5.123322 0,1.034983 -0.517539,2.458192 -1.552521,4.269435 L 57.036869,72.848731 c -0.517538,0.879731 -1.345487,1.68193 -2.484035,2.406408 -1.138548,0.672791 -2.277,1.00914 -3.415548,1.00914 -1.086765,0 -2.147687,-0.258722 -3.18267,-0.776261 -0.983295,-0.569227 -1.68193,-1.138548 -2.095904,-1.707775 L 45.160077,72.926356 29.01385,45.291467 c -1.035015,-1.707774 -1.552523,-3.105044 -1.552523,-4.191809 0,-1.863026 1.345517,-3.596644 4.036557,-5.200948 1.966524,-1.138547 3.519047,-1.707774 4.657566,-1.707774 1.138548,0 2.018278,0.362286 2.639287,1.086765 0.672791,0.672791 1.371426,1.707774 2.095904,3.105044 L 51.05966,57.944521 61.228678,38.382745 c 0.569227,-0.983296 0.983296,-1.68193 1.242018,-2.095904 0.310504,-0.465757 0.77626,-0.90567 1.39727,-1.319644 0.621008,-0.465756 1.449051,-0.698635 2.484034,-0.698635 1.034984,0 2.458191,0.543382 4.269435,1.630148 z"
     fill="#000000"
     id="path230"
     style="stroke-width:0.946656" />
  <path
     d="m 78.903761,41.798293 c 0,-1.190235 0.02584,-2.070061 0.07763,-2.639287 0.10347,-0.621009 0.336348,-1.319644 0.698635,-2.095904 0.724478,-1.345488 2.742756,-2.018279 6.054835,-2.018279 2.484035,0 4.243591,0.439913 5.278574,1.319644 0.879731,0.724479 1.345583,1.837182 1.39727,3.337922 0.05179,0.517539 0.07763,1.267861 0.07763,2.251156 v 27.169133 c 0,1.190236 -0.05178,2.095905 -0.155252,2.716913 -0.05169,0.569227 -0.284661,1.242018 -0.698635,2.018279 -0.672696,1.345487 -2.665132,2.018278 -5.977209,2.018278 -3.260296,0 -5.252731,-0.698635 -5.977209,-2.095905 -0.362287,-0.77626 -0.595165,-1.449051 -0.698635,-2.018278 -0.05179,-0.569226 -0.07763,-1.474895 -0.07763,-2.716913 z"
     fill="#000000"
     id="path232"
     style="stroke-width:0.946656" />
  <path
     d="m 112.04102,40.401023 c 2.43225,-3.67427 5.3562,-5.511452 8.77175,-5.511452 5.27819,0 9.21156,2.251156 11.79878,6.75347 0.56989,-0.776261 1.24201,-1.578366 2.01828,-2.406409 0.82832,-0.879731 2.12241,-1.811244 3.8813,-2.79454 1.75984,-1.034982 3.5708,-1.552521 5.43383,-1.552521 4.14069,0 7.60736,1.604304 10.40189,4.812818 2.79454,3.156825 4.19182,8.409462 4.19182,15.758097 v 13.584566 c 0,1.190235 -0.0512,2.095905 -0.15526,2.716913 -0.0512,0.569227 -0.28399,1.242018 -0.69864,2.018278 -0.67212,1.39727 -2.66483,2.095905 -5.9772,2.095905 -3.2603,0 -5.25207,-0.724479 -5.97721,-2.17353 -0.36162,-0.776262 -0.5945,-1.449053 -0.69864,-2.018278 -0.0511,-0.62101 -0.0776,-1.526679 -0.0776,-2.716914 V 55.382859 c 0,-4.502313 -1.60365,-6.75347 -4.81283,-6.75347 -1.81095,0 -3.05297,0.595166 -3.72605,1.785401 -0.62101,1.190235 -0.93151,2.872165 -0.93151,5.045696 v 13.584566 c 0,1.242018 -0.0511,2.147687 -0.15526,2.716913 -0.0511,0.569227 -0.28399,1.242018 -0.69863,2.018278 -0.72419,1.39727 -2.74247,2.095905 -6.05483,2.095905 -3.2603,0 -5.25207,-0.724479 -5.97721,-2.17353 -0.36162,-0.776262 -0.59479,-1.449053 -0.69826,-2.018278 -0.0518,-0.62101 -0.0776,-1.526679 -0.0776,-2.716914 V 55.382859 c 0,-4.502313 -1.6043,-6.75347 -4.81282,-6.75347 -3.10505,0 -4.65756,2.251157 -4.65756,6.75347 v 13.739819 c 0,1.190236 -0.0518,2.095905 -0.15526,2.716913 -0.0518,0.569227 -0.28466,1.242018 -0.69864,2.018279 -0.77625,1.345487 -2.79453,2.018278 -6.05484,2.018278 -3.26028,0 -5.25272,-0.698635 -5.977196,-2.095905 -0.362286,-0.77626 -0.595164,-1.449051 -0.698635,-2.018278 -0.05178,-0.569226 -0.07763,-1.474895 -0.07763,-2.716913 V 41.720667 c 0,-1.190236 0.02584,-2.070061 0.07763,-2.639287 0.103471,-0.621009 0.362288,-1.293799 0.776262,-2.018278 0.776259,-1.39727 2.613439,-2.095905 5.511449,-2.095905 2.89801,0 4.78698,0.465757 5.66671,1.39727 0.87972,0.931513 1.31964,2.277 1.31964,4.036556 z"
     fill="#000000"
     id="path234"
     style="stroke-width:0.946656" />
</svg>
